<?xml version="1.0" standalone="no"?>
<!DOCTYPE svg PUBLIC "-//W3C//DTD SVG 20010904//EN"
 "http://www.w3.org/TR/2001/REC-SVG-20010904/DTD/svg10.dtd">
<svg version="1.0" xmlns="http://www.w3.org/2000/svg"
 width="470.000000pt" height="470.000000pt" viewBox="0 0 470.000000 470.000000"
 preserveAspectRatio="xMidYMid meet">
<metadata>
Created by potrace 1.11, written by Peter Selinger 2001-2013
</metadata>
<g transform="translate(0.000000,470.000000) scale(0.100000,-0.100000)"
fill="#000000" stroke="none">
<path d="M2287 4654 c-1 -1 -51 -4 -112 -7 -60 -4 -119 -8 -130 -10 -11 -3
-42 -8 -70 -12 -246 -35 -565 -151 -799 -291 -591 -354 -981 -920 -1101 -1599
-52 -294 -38 -671 36 -950 6 -22 13 -47 14 -55 5 -21 44 -141 54 -165 5 -11
23 -56 41 -100 61 -153 231 -446 307 -530 10 -12 42 -50 72 -85 208 -249 523
-481 833 -614 108 -47 257 -100 309 -111 8 -2 44 -10 80 -19 228 -54 504 -74
739 -52 916 84 1698 707 1985 1581 37 111 81 301 90 385 4 30 9 66 11 80 9 48
12 375 4 455 -32 314 -108 576 -247 848 -356 696 -1058 1171 -1838 1243 -59 5
-273 12 -278 8z m336 -60 c179 -26 227 -36 352 -71 175 -50 421 -157 543 -238
30 -19 56 -35 59 -35 3 0 37 -23 77 -52 555 -401 887 -976 951 -1648 8 -78 8
-301 0 -390 -44 -530 -277 -1032 -652 -1405 -437 -435 -993 -664 -1608 -662
-260 1 -483 36 -714 114 -740 248 -1300 860 -1481 1618 -26 107 -35 161 -55
325 -7 55 -7 339 0 395 40 335 100 546 225 800 59 118 205 358 229 375 4 3 14
16 23 29 53 77 240 265 353 355 39 31 75 60 81 65 41 33 211 139 287 179 253
133 488 206 792 247 119 16 428 15 538 -1z"/>
<path d="M2145 4213 c-201 -14 -469 -85 -640 -171 -253 -126 -525 -363 -685
-595 -19 -29 -38 -54 -41 -57 -13 -11 -102 -179 -136 -254 -86 -196 -140 -396
-159 -599 -10 -98 -11 -270 -2 -337 3 -30 9 -77 12 -105 32 -301 178 -641 382
-892 74 -91 184 -203 198 -202 6 0 29 20 51 43 l40 43 77 -63 c510 -415 1186
-514 1778 -261 506 217 880 660 1005 1192 52 222 60 489 20 694 -3 14 -8 42
-11 61 -3 19 -17 73 -31 120 -111 386 -355 719 -690 947 -208 141 -484 249
-708 279 -27 3 -52 8 -54 10 -2 2 -5 34 -5 71 l-1 68 -55 6 c-53 6 -263 7
-345 2z m400 -184 c251 -30 508 -122 715 -256 75 -49 107 -73 209 -158 38 -32
157 -156 191 -200 17 -22 37 -47 44 -56 64 -78 139 -209 199 -351 85 -198 128
-400 132 -618 3 -201 -5 -272 -60 -500 -14 -59 -72 -206 -113 -288 -252 -505
-725 -846 -1287 -928 -104 -15 -410 -12 -495 5 -30 6 -69 13 -86 16 -58 9
-207 56 -293 91 -426 176 -766 521 -933 949 -39 98 -83 261 -94 340 -3 28 -10
73 -14 100 -9 52 -7 376 3 391 2 5 8 32 11 59 4 28 9 58 12 67 3 9 7 25 9 37
8 41 45 168 65 219 124 324 350 608 638 804 152 103 349 191 527 237 79 20
113 26 210 38 28 3 52 7 54 9 8 7 282 2 356 -7z"/>
<path d="M2268 3955 c-2 -1 -37 -6 -78 -9 -249 -23 -544 -131 -765 -280 -125
-85 -316 -275 -401 -401 -201 -296 -287 -571 -288 -920 -1 -199 16 -307 74
-486 31 -94 107 -269 126 -288 2 -2 22 4 44 14 22 10 41 16 43 14 271 -438
652 -693 1132 -759 92 -12 304 -12 385 1 30 5 70 11 89 14 91 14 270 73 376
123 l80 38 31 -43 31 -44 54 37 c74 51 229 175 282 227 156 153 289 362 373
584 28 73 79 263 88 328 4 23 9 52 12 65 10 44 13 283 4 340 -4 30 -11 75 -15
100 -18 124 -70 283 -140 426 -183 377 -491 661 -885 817 -80 31 -235 73 -310
82 -30 4 -58 9 -62 11 -8 5 -275 14 -280 9z m337 -146 c310 -56 569 -192 795
-419 363 -363 509 -861 400 -1365 -98 -451 -422 -850 -840 -1034 -41 -18 -84
-37 -95 -42 -11 -4 -60 -20 -110 -33 -369 -103 -741 -67 -1082 105 -144 73
-253 151 -368 264 -126 125 -214 247 -289 400 -70 143 -95 212 -127 355 -30
132 -34 395 -9 530 25 135 27 143 66 260 170 511 587 870 1139 979 130 26 375
26 520 0z"/>
<path d="M2165 3771 l-40 -6 3 -56 3 -55 -83 -18 c-359 -77 -693 -337 -867
-675 -47 -92 -103 -241 -114 -306 -3 -16 -11 -57 -17 -90 -14 -70 -20 -281
-10 -338 5 -25 4 -40 -4 -43 -16 -6 -58 -12 -83 -13 -17 -1 -21 -6 -17 -23 2
-13 7 -39 10 -58 21 -135 88 -327 156 -443 59 -103 187 -267 208 -267 4 0 27
15 50 34 l44 34 65 -59 c131 -119 305 -219 476 -273 72 -22 119 -33 225 -52
56 -10 266 -11 332 -2 93 12 177 31 221 47 25 10 26 8 43 -42 9 -29 18 -53 19
-54 1 -2 26 4 56 13 81 24 242 110 333 178 83 61 239 212 291 280 l29 38 -42
37 -43 36 47 75 c60 98 79 137 119 245 194 532 27 1118 -420 1475 -39 30 -101
73 -138 95 -37 22 -67 44 -67 50 0 5 9 29 20 53 l19 42 -67 31 c-195 88 -335
117 -572 117 -80 0 -163 -3 -185 -7z m340 -135 c19 -3 52 -9 73 -12 55 -8 108
-22 192 -51 306 -105 575 -342 719 -631 107 -213 149 -413 137 -642 -6 -131
-8 -142 -41 -268 -124 -470 -502 -826 -985 -928 -90 -19 -343 -26 -450 -12
-159 21 -379 108 -529 210 -287 196 -483 502 -545 853 -14 81 -15 357 -2 420
54 249 133 420 275 597 209 260 526 431 861 466 79 8 237 7 295 -2z"/>
<path d="M2230 3204 c-132 -23 -203 -45 -288 -88 -217 -113 -379 -325 -433
-566 -17 -77 -20 -116 -16 -205 3 -60 8 -119 10 -130 22 -90 35 -127 65 -189
118 -244 316 -405 573 -465 113 -27 300 -23 407 8 290 85 497 291 580 576 131
450 -141 922 -598 1039 -63 16 -250 29 -300 20z m248 -200 c220 -54 406 -232
472 -452 36 -119 32 -277 -9 -396 -79 -226 -271 -391 -503 -432 -345 -62 -677
155 -758 496 -19 77 -17 231 4 309 49 188 179 346 354 431 47 22 107 40 216
64 29 6 167 -6 224 -20z"/>
<path d="M2317 2803 c-4 -3 -7 -104 -7 -223 l0 -216 35 -2 35 -3 -2 222 -3
222 -26 4 c-14 2 -29 0 -32 -4z"/>
<path d="M2102 2613 c-85 -85 -106 -135 -107 -253 0 -88 3 -101 33 -162 100
-204 344 -261 531 -123 97 71 140 160 135 275 -3 82 -9 111 -35 166 -21 44
-120 144 -142 144 -11 0 -57 -62 -57 -76 0 -4 16 -23 36 -42 98 -95 107 -255
20 -350 -41 -46 -95 -67 -176 -67 -63 0 -82 4 -115 25 -82 51 -125 129 -120
221 3 73 16 101 72 157 l48 47 -25 48 c-14 26 -28 47 -32 47 -4 0 -34 -26 -66
-57z"/>
</g>
</svg>
